<svg width="986" height="500" viewBox="0 0 986 500" fill="none" xmlns="http://www.w3.org/2000/svg">
<g clip-path="url(#clip0_1_2)">
<rect width="986" height="500" fill="#2A2929"/>
<path d="M986 -47V506.919L-226 584L986 -47Z" fill="#606260" fill-opacity="0.4"/>
<path d="M1021 -47V506.919L-191 584L1021 -47Z" fill="#606260" fill-opacity="0.6"/>
<path d="M994 -9.5V511.5L-166 584L994 -9.5Z" fill="#606260"/>
<path d="M605.007 133.062C606.794 137.921 605.286 143.34 601.432 146.803L577.245 168.812C577.859 173.448 578.194 178.196 578.194 183C578.194 187.804 577.859 192.552 577.245 197.188L601.432 219.197C605.286 222.66 606.794 228.079 605.007 232.938C602.549 239.586 599.588 245.954 596.181 252.098L593.555 256.623C589.869 262.767 585.735 268.577 581.211 274.051C577.915 278.073 572.441 279.413 567.525 277.849L536.411 267.962C528.926 273.716 520.659 278.52 511.833 282.15L504.851 314.046C503.734 319.129 499.823 323.151 494.684 323.989C486.976 325.274 479.044 325.944 470.944 325.944C462.845 325.944 454.913 325.274 447.204 323.989C442.065 323.151 438.155 319.129 437.038 314.046L430.055 282.15C421.229 278.52 412.962 273.716 405.477 267.962L374.419 277.905C369.504 279.469 364.029 278.073 360.734 274.107C356.209 268.632 352.075 262.823 348.389 256.679L345.763 252.154C342.356 246.009 339.395 239.641 336.938 232.994C335.15 228.134 336.658 222.716 340.513 219.253L364.7 197.244C364.085 192.552 363.75 187.804 363.75 183C363.75 178.196 364.085 173.448 364.7 168.812L340.513 146.803C336.658 143.34 335.15 137.921 336.938 133.062C339.395 126.414 342.356 120.046 345.763 113.902L348.389 109.377C352.075 103.233 356.209 97.4234 360.734 91.9492C364.029 87.9273 369.504 86.5867 374.419 88.1508L405.533 98.0379C413.018 92.2844 421.285 87.4805 430.111 83.8496L437.093 51.9539C438.211 46.8707 442.121 42.8488 447.26 42.0109C454.968 40.6703 462.9 40 471 40C479.1 40 487.032 40.6703 494.74 41.9551C499.879 42.793 503.789 46.8148 504.907 51.898L511.889 83.7938C520.715 87.4246 528.982 92.2285 536.467 97.982L567.581 88.0949C572.496 86.5309 577.971 87.9273 581.266 91.8934C585.791 97.3676 589.925 103.177 593.611 109.321L596.237 113.846C599.644 119.991 602.605 126.359 605.063 133.006L605.007 133.062ZM471 227.688C482.852 227.688 494.218 222.979 502.599 214.599C510.979 206.218 515.688 194.852 515.688 183C515.688 171.148 510.979 159.782 502.599 151.401C494.218 143.021 482.852 138.313 471 138.313C459.148 138.313 447.782 143.021 439.401 151.401C431.021 159.782 426.313 171.148 426.313 183C426.313 194.852 431.021 206.218 439.401 214.599C447.782 222.979 459.148 227.688 471 227.688Z" fill="white"/>
<circle cx="471" cy="183" r="73" fill="#2A2929"/>
<path d="M272.992 376.552L272.8 391.624H276.64C279.264 391.56 281.6 391.528 283.648 391.528C285.696 391.528 287.968 391.56 290.464 391.624H290.944C291.712 391.624 292.448 391.656 293.152 391.72C293.92 391.72 294.656 391.72 295.36 391.72C296.128 391.784 296.864 391.912 297.568 392.104C298.272 392.232 298.976 392.392 299.68 392.584C300.768 392.968 301.664 393.544 302.368 394.312C303.008 395.144 303.328 396.072 303.328 397.096C303.328 397.416 303.328 397.8 303.328 398.248C303.328 398.632 303.264 398.984 303.136 399.304C303.008 400.008 302.592 400.648 301.888 401.224C301.568 401.672 300.96 401.992 300.064 402.184C299.232 402.44 298.4 402.6 297.568 402.664C296.672 402.856 295.776 402.952 294.88 402.952H290.368L272.608 403.048L272.416 421.864L291.52 422.056H296.032C296.544 422.056 297.024 422.056 297.472 422.056C297.92 422.056 298.336 422.088 298.72 422.152C299.232 422.28 299.68 422.376 300.064 422.44C300.512 422.44 300.928 422.504 301.312 422.632C302.08 422.888 302.72 423.24 303.232 423.688C303.872 424.328 304.288 425 304.48 425.704C304.544 426.024 304.576 426.376 304.576 426.76C304.64 427.08 304.64 427.432 304.576 427.816C304.576 428.84 304.256 429.768 303.616 430.6C302.848 431.496 301.952 432.072 300.928 432.328C299.584 432.904 298.112 433.192 296.512 433.192C295.808 433.256 295.072 433.288 294.304 433.288C293.536 433.288 292.8 433.32 292.096 433.384H291.52C286.528 433.512 281.344 433.512 275.968 433.384C274.688 433.384 273.664 433.352 272.896 433.288C272.128 433.288 271.424 433.288 270.784 433.288C270.208 433.288 269.6 433.288 268.96 433.288C268.32 433.288 267.488 433.288 266.464 433.288C264.992 433.416 263.776 433.16 262.816 432.52C262.112 432.072 261.568 431.464 261.184 430.696C260.992 430.504 260.896 430.312 260.896 430.12C260.832 429.992 260.768 429.896 260.704 429.832C260.64 429.768 260.576 429.672 260.512 429.544C260.384 429.224 260.288 428.904 260.224 428.584C260.16 428.2 260.128 427.848 260.128 427.528C260.064 427.208 260 426.888 259.936 426.568C259.936 426.248 259.904 425.928 259.84 425.608V424.072C259.84 423.816 259.84 423.56 259.84 423.304C259.904 423.048 259.936 422.792 259.936 422.536V415.048L260.128 401.224V388.456C260.128 386.152 260.128 384.104 260.128 382.312C260.192 380.52 260.256 378.568 260.32 376.456V375.976C260.384 375.272 260.416 374.632 260.416 374.056C260.48 373.416 260.512 372.776 260.512 372.136C260.576 370.856 260.928 369.608 261.568 368.392C261.824 367.88 262.08 367.432 262.336 367.048C262.656 366.664 263.072 366.344 263.584 366.088C264.544 365.512 265.536 365.224 266.56 365.224C267.072 365.224 267.456 365.256 267.712 365.32V365.224C268.864 365.224 269.792 365.224 270.496 365.224C271.2 365.224 271.872 365.224 272.512 365.224C273.216 365.224 273.952 365.224 274.72 365.224C275.488 365.16 276.544 365.128 277.888 365.128C280.448 365.064 282.88 365.032 285.184 365.032C287.488 365.032 289.856 365.064 292.288 365.128H292.672C293.376 365.192 294.112 365.224 294.88 365.224C295.648 365.224 296.384 365.256 297.088 365.32C297.792 365.32 298.496 365.416 299.2 365.608C299.904 365.736 300.608 365.928 301.312 366.184C302.4 366.504 303.296 367.048 304 367.816C304.576 368.712 304.864 369.608 304.864 370.504C304.864 370.888 304.864 371.272 304.864 371.656C304.864 371.976 304.8 372.296 304.672 372.616C304.608 373.256 304.224 373.928 303.52 374.632C303.264 374.76 302.976 374.92 302.656 375.112C302.4 375.304 302.08 375.464 301.696 375.592C301.312 375.72 300.896 375.816 300.448 375.88C300.064 375.88 299.68 375.912 299.296 375.976C298.784 376.104 298.304 376.168 297.856 376.168C297.472 376.168 297.024 376.168 296.512 376.168H292.192L272.992 376.264V376.552ZM370.992 426.088C370.928 426.856 370.832 427.656 370.704 428.488C370.576 429.32 370.352 430.088 370.032 430.792C369.712 431.56 369.296 432.136 368.784 432.52C368.08 433.16 367.248 433.512 366.288 433.576C365.392 433.896 364.528 433.992 363.696 433.864C362.864 433.736 362.096 433.512 361.392 433.192C360.496 432.616 359.824 431.944 359.375 431.176C358.992 430.344 358.704 429.48 358.512 428.584C358.32 427.688 358.224 426.76 358.224 425.8C358.224 424.84 358.224 423.944 358.224 423.112V415.624L358.128 400.936C358.128 399.912 358.128 399.112 358.128 398.536C358.128 397.96 358.128 397.448 358.128 397C358.128 396.488 358.096 395.944 358.031 395.368C358.031 394.728 358.031 393.832 358.031 392.68C358.031 392.488 358.031 392.168 358.031 391.72C358.096 391.208 358.064 389.896 357.936 387.784C355.44 391.944 353.36 395.304 351.696 397.864C350.096 400.36 348.72 402.312 347.568 403.72C346.48 405.064 345.52 405.992 344.688 406.504C343.856 406.952 342.992 407.208 342.096 407.272C341.584 407.336 341.072 407.24 340.56 406.984C340.048 406.728 339.536 406.408 339.024 406.024C338.576 405.64 338.128 405.256 337.68 404.872C337.296 404.424 336.976 404.008 336.72 403.624C335.184 401.704 333.456 399.4 331.536 396.712C329.616 394.024 327.632 390.76 325.584 386.92C325.584 386.984 325.552 388.04 325.488 390.088C325.488 392.136 325.488 394.696 325.488 397.768C325.488 400.776 325.456 404.04 325.392 407.56C325.392 411.016 325.36 414.248 325.296 417.256C325.296 420.264 325.264 422.792 325.2 424.84C325.136 426.824 325.072 427.816 325.008 427.816C325.008 428.904 324.752 429.928 324.24 430.888C323.728 431.784 323.024 432.52 322.128 433.096C321.296 433.672 320.304 433.992 319.152 434.056C318 434.12 316.752 433.8 315.408 433.096C314.576 432.584 313.936 431.848 313.488 430.888C313.104 429.928 312.848 429.032 312.72 428.2C312.656 427.304 312.592 426.44 312.528 425.608C312.528 424.776 312.528 423.912 312.528 423.016L312.624 415.528L312.72 400.744V387.88C312.72 382.312 312.912 376.84 313.296 371.464C313.296 370.76 313.36 370.12 313.488 369.544C313.68 368.904 313.904 368.296 314.16 367.72C314.672 366.696 315.344 365.928 316.176 365.416C317.136 364.84 318.16 364.552 319.248 364.552C319.696 364.552 320.112 364.584 320.496 364.648C320.944 364.648 321.36 364.68 321.744 364.744C323.024 365 324.112 365.768 325.008 367.048C325.968 368.264 326.864 369.32 327.696 370.216C328.208 370.792 328.752 371.496 329.328 372.328C329.904 373.16 330.48 374.024 331.056 374.92C331.632 375.816 332.176 376.68 332.688 377.512C333.2 378.344 333.648 379.08 334.031 379.72C335.696 382.408 337.168 384.872 338.448 387.112C339.792 389.352 341.04 391.272 342.192 392.872C342.384 392.68 342.608 392.424 342.864 392.104C343.12 391.72 343.376 391.336 343.632 390.952C343.952 390.504 344.208 390.088 344.4 389.704C344.656 389.32 344.848 389 344.976 388.744C345.616 387.72 346.256 386.728 346.896 385.768C347.536 384.744 348.208 383.688 348.912 382.6C349.68 381.448 350.448 380.2 351.216 378.856C352.048 377.512 353.008 375.976 354.096 374.248C354.544 373.48 355.12 372.552 355.824 371.464C356.528 370.376 357.328 369.32 358.224 368.296C359.12 367.272 360.048 366.408 361.008 365.704C362.032 364.936 363.056 364.552 364.08 364.552C364.592 364.552 365.04 364.584 365.424 364.648C365.808 364.648 366.192 364.68 366.576 364.744C367.344 364.808 368.08 365.16 368.784 365.8C369.296 366.312 369.68 366.856 369.936 367.432C370.192 368.264 370.352 368.968 370.416 369.544C370.48 369.992 370.512 370.408 370.512 370.792C370.576 371.176 370.608 371.56 370.608 371.944C370.608 375.528 370.64 379.08 370.704 382.6C370.768 386.12 370.8 389.672 370.8 393.256C370.8 397.608 370.8 402.088 370.8 406.696C370.864 411.304 370.896 415.784 370.896 420.136C370.896 421.032 370.928 421.992 370.992 423.016C371.056 424.04 371.056 425.064 370.992 426.088ZM445.414 397.576C447.27 398.792 448.838 400.232 450.118 401.896C451.462 403.496 452.518 405.48 453.286 407.848C454.118 410.472 454.534 413.128 454.534 415.816C454.598 418.44 454.118 420.904 453.094 423.208C452.134 425.448 450.566 427.432 448.39 429.16C446.278 430.824 443.494 432.008 440.038 432.712C438.182 433.16 436.006 433.512 433.51 433.768C431.014 434.024 428.774 434.152 426.79 434.152C424.294 434.216 421.702 434.216 419.014 434.152C416.39 434.152 413.83 433.896 411.334 433.384C410.246 433.064 409.446 432.52 408.934 431.752C408.486 430.92 408.166 429.992 407.974 428.968C407.718 428.392 407.59 427.816 407.59 427.24V372.712C407.59 370.92 407.942 369.544 408.646 368.584C409.414 367.56 410.406 366.824 411.622 366.376C412.838 365.864 414.214 365.576 415.75 365.512C417.286 365.384 418.886 365.32 420.55 365.32C421.83 365.32 423.11 365.32 424.39 365.32C425.734 365.256 427.078 365.256 428.422 365.32C430.534 365.384 432.71 365.576 434.95 365.896C437.254 366.152 439.43 366.664 441.478 367.432C442.438 367.752 443.462 368.2 444.55 368.776C445.638 369.288 446.502 369.928 447.142 370.696C449.19 372.552 450.694 374.728 451.654 377.224C452.678 379.656 453.126 382.152 452.998 384.712C452.87 387.208 452.166 389.608 450.886 391.912C449.67 394.216 447.846 396.104 445.414 397.576ZM428.614 423.016C430.598 422.888 432.614 422.664 434.662 422.344C436.71 422.024 438.118 421.416 438.886 420.52C439.718 419.496 440.294 418.312 440.614 416.968C440.998 415.56 441.094 414.152 440.902 412.744C440.774 411.272 440.358 409.896 439.654 408.616C439.014 407.272 438.15 406.216 437.062 405.448C435.59 404.296 433.894 403.56 431.974 403.24C430.054 402.856 428.166 402.664 426.31 402.664C425.414 402.664 424.582 402.696 423.814 402.76C423.11 402.76 422.47 402.856 421.894 403.048C421.382 403.176 420.998 403.464 420.742 403.912C420.486 404.36 420.358 405.032 420.358 405.928C420.486 407.592 420.486 409.256 420.358 410.92C420.23 412.584 420.166 414.184 420.166 415.72C420.166 416.616 420.134 417.608 420.07 418.696C420.07 419.72 420.422 420.584 421.126 421.288C421.83 421.992 422.854 422.472 424.198 422.728C425.542 422.984 427.014 423.08 428.614 423.016ZM430.534 376.936C428.55 376.872 426.886 376.84 425.542 376.84C424.262 376.776 423.238 376.872 422.47 377.128C421.766 377.32 421.254 377.8 420.934 378.568C420.678 379.272 420.582 380.36 420.646 381.832C420.646 383.048 420.614 384.264 420.55 385.48C420.55 386.632 420.55 387.784 420.55 388.936C420.55 390.216 420.966 391.176 421.798 391.816C422.63 392.392 423.654 392.744 424.87 392.872C426.15 393 427.462 393 428.806 392.872C430.214 392.744 431.43 392.584 432.454 392.392C434.758 392.008 436.518 391.24 437.734 390.088C439.014 388.872 439.75 387.112 439.942 384.808C440.198 381.928 439.43 379.944 437.638 378.856C435.91 377.704 433.542 377.064 430.534 376.936ZM510.564 428.776C510.628 429.416 510.564 430.024 510.372 430.6C510.244 430.984 510.052 431.304 509.796 431.56C509.604 431.816 509.348 432.072 509.028 432.328C508.452 432.712 507.748 433.064 506.916 433.384C506.404 433.512 505.892 433.608 505.38 433.672C504.932 433.8 504.452 433.8 503.94 433.672C502.916 433.608 502.02 433.224 501.252 432.52C500.164 431.624 499.268 430.632 498.564 429.544C498.244 429.032 497.892 428.456 497.508 427.816C497.124 427.176 496.772 426.504 496.452 425.8L485.796 405.544C485.284 405.544 484.772 405.576 484.26 405.64C483.748 405.64 483.236 405.672 482.724 405.736C481.38 405.864 480.1 405.896 478.884 405.832C477.732 405.768 476.516 405.768 475.236 405.832H473.412V423.208C473.412 423.72 473.38 424.2 473.316 424.648C473.316 425.096 473.316 425.576 473.316 426.088C473.316 426.408 473.284 426.824 473.22 427.336C473.22 427.848 473.188 428.328 473.124 428.776C472.996 429.48 472.708 430.216 472.26 430.984C471.812 431.688 471.204 432.296 470.436 432.808C469.092 433.64 467.46 433.864 465.54 433.48C464.708 433.288 463.908 432.968 463.14 432.52C462.884 432.328 462.66 432.104 462.468 431.848C462.276 431.528 462.116 431.208 461.988 430.888C461.86 430.568 461.732 430.248 461.604 429.928C461.54 429.544 461.444 429.192 461.316 428.872C461.124 428.232 461.028 427.624 461.028 427.048V372.52C461.028 372.136 461.028 371.752 461.028 371.368C461.092 370.92 461.156 370.536 461.22 370.216C461.284 369.512 461.508 368.808 461.892 368.104C462.084 367.336 462.404 366.792 462.852 366.472C463.236 366.088 463.812 365.768 464.58 365.512C465.412 365.192 466.596 365.064 468.132 365.128C471.012 365.192 473.86 365.224 476.676 365.224C479.492 365.224 482.308 365.288 485.124 365.416C486.98 365.544 488.932 365.768 490.98 366.088C493.092 366.344 495.044 366.824 496.836 367.528C497.988 367.976 499.044 368.424 500.004 368.872C501.22 369.576 502.18 370.248 502.884 370.888C505.124 372.936 506.82 375.4 507.972 378.28C509.124 381.16 509.7 384.072 509.7 387.016C509.7 390.472 508.868 393.64 507.204 396.52C505.604 399.4 503.012 401.544 499.428 402.952C499.3 403.08 499.108 403.176 498.852 403.24C498.66 403.24 498.5 403.272 498.372 403.336L507.204 421.096L508.068 422.632C508.196 422.888 508.356 423.176 508.548 423.496C508.74 423.816 508.9 424.136 509.028 424.456C509.22 424.776 509.38 425.128 509.508 425.512C509.7 425.896 509.892 426.248 510.083 426.568C510.276 427.464 510.436 428.2 510.564 428.776ZM486.564 394.6C487.716 394.6 488.804 394.408 489.828 394.024C490.916 393.576 491.876 393 492.708 392.296C493.604 391.592 494.34 390.792 494.916 389.896C495.492 388.936 495.812 387.912 495.876 386.824C496.132 383.624 495.3 381.256 493.38 379.72C491.46 378.12 488.932 377.256 485.796 377.128C483.94 377 481.892 376.936 479.652 376.936C477.476 376.936 475.396 376.936 473.412 376.936C473.476 379.56 473.476 382.248 473.412 385C473.412 387.688 473.412 390.888 473.412 394.6H486.564ZM531.461 376.552L531.269 391.624H535.109C537.733 391.56 540.069 391.528 542.117 391.528C544.165 391.528 546.437 391.56 548.933 391.624H549.413C550.181 391.624 550.917 391.656 551.621 391.72C552.389 391.72 553.125 391.72 553.829 391.72C554.597 391.784 555.333 391.912 556.037 392.104C556.741 392.232 557.445 392.392 558.149 392.584C559.237 392.968 560.133 393.544 560.837 394.312C561.477 395.144 561.797 396.072 561.797 397.096C561.797 397.416 561.797 397.8 561.797 398.248C561.797 398.632 561.733 398.984 561.605 399.304C561.477 400.008 561.061 400.648 560.357 401.224C560.037 401.672 559.429 401.992 558.533 402.184C557.701 402.44 556.869 402.6 556.037 402.664C555.141 402.856 554.245 402.952 553.349 402.952H548.837L531.077 403.048L530.885 421.864L549.989 422.056H554.501C555.013 422.056 555.493 422.056 555.941 422.056C556.389 422.056 556.805 422.088 557.189 422.152C557.701 422.28 558.149 422.376 558.533 422.44C558.981 422.44 559.397 422.504 559.781 422.632C560.549 422.888 561.189 423.24 561.701 423.688C562.341 424.328 562.757 425 562.949 425.704C563.013 426.024 563.045 426.376 563.045 426.76C563.109 427.08 563.109 427.432 563.045 427.816C563.045 428.84 562.725 429.768 562.085 430.6C561.317 431.496 560.421 432.072 559.397 432.328C558.053 432.904 556.581 433.192 554.981 433.192C554.277 433.256 553.541 433.288 552.773 433.288C552.005 433.288 551.269 433.32 550.565 433.384H549.989C544.997 433.512 539.813 433.512 534.437 433.384C533.157 433.384 532.133 433.352 531.365 433.288C530.597 433.288 529.893 433.288 529.253 433.288C528.677 433.288 528.069 433.288 527.429 433.288C526.789 433.288 525.957 433.288 524.933 433.288C523.461 433.416 522.245 433.16 521.285 432.52C520.581 432.072 520.037 431.464 519.653 430.696C519.461 430.504 519.365 430.312 519.365 430.12C519.301 429.992 519.237 429.896 519.173 429.832C519.109 429.768 519.045 429.672 518.981 429.544C518.853 429.224 518.757 428.904 518.693 428.584C518.629 428.2 518.597 427.848 518.597 427.528C518.533 427.208 518.469 426.888 518.405 426.568C518.405 426.248 518.373 425.928 518.309 425.608V424.072C518.309 423.816 518.309 423.56 518.309 423.304C518.373 423.048 518.405 422.792 518.405 422.536V415.048L518.597 401.224V388.456C518.597 386.152 518.597 384.104 518.597 382.312C518.661 380.52 518.725 378.568 518.789 376.456V375.976C518.853 375.272 518.885 374.632 518.885 374.056C518.949 373.416 518.981 372.776 518.981 372.136C519.045 370.856 519.397 369.608 520.037 368.392C520.293 367.88 520.549 367.432 520.805 367.048C521.125 366.664 521.541 366.344 522.053 366.088C523.013 365.512 524.005 365.224 525.029 365.224C525.541 365.224 525.925 365.256 526.181 365.32V365.224C527.333 365.224 528.261 365.224 528.965 365.224C529.669 365.224 530.341 365.224 530.981 365.224C531.685 365.224 532.421 365.224 533.189 365.224C533.957 365.16 535.013 365.128 536.357 365.128C538.917 365.064 541.349 365.032 543.653 365.032C545.957 365.032 548.325 365.064 550.757 365.128H551.141C551.845 365.192 552.581 365.224 553.349 365.224C554.117 365.224 554.853 365.256 555.557 365.32C556.261 365.32 556.965 365.416 557.669 365.608C558.373 365.736 559.077 365.928 559.781 366.184C560.869 366.504 561.765 367.048 562.469 367.816C563.045 368.712 563.333 369.608 563.333 370.504C563.333 370.888 563.333 371.272 563.333 371.656C563.333 371.976 563.269 372.296 563.141 372.616C563.077 373.256 562.693 373.928 561.989 374.632C561.733 374.76 561.445 374.92 561.125 375.112C560.869 375.304 560.549 375.464 560.165 375.592C559.781 375.72 559.365 375.816 558.917 375.88C558.533 375.88 558.149 375.912 557.765 375.976C557.253 376.104 556.773 376.168 556.325 376.168C555.941 376.168 555.493 376.168 554.981 376.168H550.661L531.461 376.264V376.552ZM627.732 369.64C628.052 371.112 628.084 372.616 627.828 374.152C627.636 375.624 627.348 376.968 626.964 378.184C626.196 380.68 625.3 383.464 624.276 386.536C623.252 389.608 622.228 392.68 621.204 395.752C620.18 398.824 619.188 401.736 618.228 404.488C617.268 407.176 616.468 409.416 615.828 411.208C615.188 412.872 614.516 414.76 613.812 416.872C613.108 418.984 612.244 421.064 611.22 423.112C610.26 425.096 609.108 426.92 607.764 428.584C606.484 430.248 604.916 431.464 603.06 432.232C601.204 433 599.508 433.192 597.972 432.808C596.436 432.36 595.06 431.592 593.844 430.504C592.628 429.352 591.508 427.944 590.484 426.28C589.524 424.552 588.66 422.792 587.892 421C587.124 419.208 586.42 417.48 585.78 415.816C585.14 414.088 584.564 412.616 584.052 411.4C582.068 407.048 580.276 402.44 578.676 397.576C577.076 392.712 575.444 388.072 573.78 383.656C573.332 382.376 572.82 380.84 572.244 379.048C571.668 377.192 571.284 375.368 571.092 373.576C570.964 371.72 571.188 370.056 571.764 368.584C572.34 367.048 573.556 365.992 575.412 365.416C575.796 365.288 576.18 365.192 576.564 365.128C577.012 365 577.428 364.904 577.812 364.84C578.26 364.84 578.676 364.872 579.06 364.936C579.444 365 579.86 365.16 580.308 365.416C580.628 365.544 580.948 365.704 581.268 365.896C581.588 366.024 581.876 366.216 582.132 366.472C582.388 366.792 582.612 367.112 582.804 367.432C583.06 367.752 583.316 368.072 583.572 368.392C583.764 368.84 583.924 369.256 584.052 369.64C584.244 369.96 584.404 370.28 584.532 370.6C584.66 371.048 584.82 371.464 585.012 371.848C585.204 372.168 585.364 372.488 585.492 372.808L586.068 374.44L599.892 413.896L613.524 374.536L614.196 372.904C614.324 372.584 614.452 372.264 614.58 371.944C614.708 371.56 614.836 371.144 614.964 370.696C615.092 370.376 615.22 370.056 615.348 369.736C615.54 369.352 615.764 368.968 616.02 368.584C616.212 368.264 616.404 367.944 616.596 367.624C616.852 367.24 617.108 366.888 617.364 366.568C617.556 366.312 617.78 366.088 618.036 365.896C618.356 365.704 618.644 365.544 618.9 365.416C619.412 365.16 619.86 365 620.244 364.936C620.692 364.872 621.076 364.84 621.396 364.84C621.78 364.904 622.164 365 622.548 365.128C622.996 365.192 623.412 365.288 623.796 365.416C625.012 365.736 625.908 366.28 626.484 367.048C627.124 367.816 627.54 368.68 627.732 369.64ZM648.836 376.552L648.644 391.624H652.484C655.108 391.56 657.444 391.528 659.492 391.528C661.54 391.528 663.812 391.56 666.308 391.624H666.788C667.556 391.624 668.292 391.656 668.996 391.72C669.764 391.72 670.5 391.72 671.204 391.72C671.972 391.784 672.708 391.912 673.412 392.104C674.116 392.232 674.82 392.392 675.524 392.584C676.612 392.968 677.508 393.544 678.212 394.312C678.852 395.144 679.172 396.072 679.172 397.096C679.172 397.416 679.172 397.8 679.172 398.248C679.172 398.632 679.108 398.984 678.98 399.304C678.852 400.008 678.436 400.648 677.732 401.224C677.412 401.672 676.804 401.992 675.908 402.184C675.076 402.44 674.244 402.6 673.412 402.664C672.516 402.856 671.62 402.952 670.724 402.952H666.212L648.452 403.048L648.26 421.864L667.364 422.056H671.876C672.388 422.056 672.868 422.056 673.316 422.056C673.764 422.056 674.18 422.088 674.564 422.152C675.076 422.28 675.524 422.376 675.908 422.44C676.356 422.44 676.772 422.504 677.156 422.632C677.924 422.888 678.564 423.24 679.076 423.688C679.716 424.328 680.132 425 680.324 425.704C680.388 426.024 680.42 426.376 680.42 426.76C680.484 427.08 680.484 427.432 680.42 427.816C680.42 428.84 680.1 429.768 679.46 430.6C678.692 431.496 677.796 432.072 676.772 432.328C675.428 432.904 673.956 433.192 672.356 433.192C671.652 433.256 670.916 433.288 670.148 433.288C669.38 433.288 668.644 433.32 667.94 433.384H667.364C662.372 433.512 657.188 433.512 651.812 433.384C650.532 433.384 649.508 433.352 648.74 433.288C647.972 433.288 647.268 433.288 646.628 433.288C646.052 433.288 645.444 433.288 644.804 433.288C644.164 433.288 643.332 433.288 642.308 433.288C640.836 433.416 639.62 433.16 638.66 432.52C637.956 432.072 637.412 431.464 637.028 430.696C636.836 430.504 636.74 430.312 636.74 430.12C636.676 429.992 636.612 429.896 636.548 429.832C636.484 429.768 636.42 429.672 636.356 429.544C636.228 429.224 636.132 428.904 636.068 428.584C636.004 428.2 635.972 427.848 635.972 427.528C635.908 427.208 635.844 426.888 635.78 426.568C635.78 426.248 635.748 425.928 635.684 425.608V424.072C635.684 423.816 635.684 423.56 635.684 423.304C635.748 423.048 635.78 422.792 635.78 422.536V415.048L635.972 401.224V388.456C635.972 386.152 635.972 384.104 635.972 382.312C636.036 380.52 636.1 378.568 636.164 376.456V375.976C636.228 375.272 636.26 374.632 636.26 374.056C636.324 373.416 636.356 372.776 636.356 372.136C636.42 370.856 636.772 369.608 637.412 368.392C637.668 367.88 637.924 367.432 638.18 367.048C638.5 366.664 638.916 366.344 639.428 366.088C640.388 365.512 641.38 365.224 642.404 365.224C642.916 365.224 643.3 365.256 643.556 365.32V365.224C644.708 365.224 645.636 365.224 646.34 365.224C647.044 365.224 647.716 365.224 648.356 365.224C649.06 365.224 649.796 365.224 650.564 365.224C651.332 365.16 652.388 365.128 653.732 365.128C656.292 365.064 658.724 365.032 661.028 365.032C663.332 365.032 665.7 365.064 668.132 365.128H668.516C669.22 365.192 669.956 365.224 670.724 365.224C671.492 365.224 672.228 365.256 672.932 365.32C673.636 365.32 674.34 365.416 675.044 365.608C675.748 365.736 676.452 365.928 677.156 366.184C678.244 366.504 679.14 367.048 679.844 367.816C680.42 368.712 680.708 369.608 680.708 370.504C680.708 370.888 680.708 371.272 680.708 371.656C680.708 371.976 680.644 372.296 680.516 372.616C680.452 373.256 680.068 373.928 679.364 374.632C679.108 374.76 678.82 374.92 678.5 375.112C678.244 375.304 677.924 375.464 677.54 375.592C677.156 375.72 676.74 375.816 676.292 375.88C675.908 375.88 675.524 375.912 675.14 375.976C674.628 376.104 674.148 376.168 673.7 376.168C673.316 376.168 672.868 376.168 672.356 376.168H668.036L648.836 376.264V376.552Z" fill="white"/>
</g>
<defs>
<clipPath id="clip0_1_2">
<rect width="986" height="500" fill="white"/>
</clipPath>
</defs>
</svg>
